<?xml version="1.0" ?><svg height="400px" version="1.1" viewBox="0 0 400 400" width="400px" xmlns="http://www.w3.org/2000/svg" xmlns:xlink="http://www.w3.org/1999/xlink"><title/><desc/><defs><polygon id="path-1" points="150.2 240 149.8 240 125 209 100.2 240 99.8 240 75 209 50.2 240 49.8 240 25 209 0.2 240 0 240 0 0 200 0 200 240 199.8 240 175 209 150.2 240"/><filter filterUnits="objectBoundingBox" height="200%" id="filter-2" width="200%" x="-50%" y="-50%"><feOffset dx="0" dy="2" in="SourceAlpha" result="shadowOffsetOuter1"/><feGaussianBlur in="shadowOffsetOuter1" result="shadowBlurOuter1" stdDeviation="2"/><feColorMatrix in="shadowBlurOuter1" type="matrix" values="0 0 0 0 0   0 0 0 0 0   0 0 0 0 0  0 0 0 0.5 0"/></filter><rect height="10" id="path-3" rx="5" width="160" x="20" y="180"/><filter filterUnits="objectBoundingBox" height="200%" id="filter-4" width="200%" x="-50%" y="-50%"><feOffset dx="0" dy="2" in="SourceAlpha" result="shadowOffsetOuter1"/><feGaussianBlur in="shadowOffsetOuter1" result="shadowBlurOuter1" stdDeviation="2"/><feColorMatrix in="shadowBlurOuter1" type="matrix" values="0 0 0 0 0   0 0 0 0 0   0 0 0 0 0  0 0 0 0.5 0"/></filter><rect height="10" id="path-5" rx="5" width="160" x="20" y="160"/><filter filterUnits="objectBoundingBox" height="200%" id="filter-6" width="200%" x="-50%" y="-50%"><feOffset dx="0" dy="2" in="SourceAlpha" result="shadowOffsetOuter1"/><feGaussianBlur in="shadowOffsetOuter1" result="shadowBlurOuter1" stdDeviation="2"/><feColorMatrix in="shadowBlurOuter1" type="matrix" values="0 0 0 0 0   0 0 0 0 0   0 0 0 0 0  0 0 0 0.5 0"/></filter><rect height="10" id="path-7" rx="5" width="160" x="20" y="140"/><filter filterUnits="objectBoundingBox" height="200%" id="filter-8" width="200%" x="-50%" y="-50%"><feOffset dx="0" dy="2" in="SourceAlpha" result="shadowOffsetOuter1"/><feGaussianBlur in="shadowOffsetOuter1" result="shadowBlurOuter1" stdDeviation="2"/><feColorMatrix in="shadowBlurOuter1" type="matrix" values="0 0 0 0 0   0 0 0 0 0   0 0 0 0 0  0 0 0 0.5 0"/></filter><rect height="10" id="path-9" rx="5" width="160" x="20" y="120"/><filter filterUnits="objectBoundingBox" height="200%" id="filter-10" width="200%" x="-50%" y="-50%"><feOffset dx="0" dy="2" in="SourceAlpha" result="shadowOffsetOuter1"/><feGaussianBlur in="shadowOffsetOuter1" result="shadowBlurOuter1" stdDeviation="2"/><feColorMatrix in="shadowBlurOuter1" type="matrix" values="0 0 0 0 0   0 0 0 0 0   0 0 0 0 0  0 0 0 0.5 0"/></filter><rect height="10" id="path-11" rx="5" width="160" x="20" y="90"/><filter filterUnits="objectBoundingBox" height="200%" id="filter-12" width="200%" x="-50%" y="-50%"><feOffset dx="0" dy="2" in="SourceAlpha" result="shadowOffsetOuter1"/><feGaussianBlur in="shadowOffsetOuter1" result="shadowBlurOuter1" stdDeviation="2"/><feColorMatrix in="shadowBlurOuter1" type="matrix" values="0 0 0 0 0   0 0 0 0 0   0 0 0 0 0  0 0 0 0.5 0"/></filter><rect height="10" id="path-13" rx="5" width="160" x="20" y="70"/><filter filterUnits="objectBoundingBox" height="200%" id="filter-14" width="200%" x="-50%" y="-50%"><feOffset dx="0" dy="2" in="SourceAlpha" result="shadowOffsetOuter1"/><feGaussianBlur in="shadowOffsetOuter1" result="shadowBlurOuter1" stdDeviation="2"/><feColorMatrix in="shadowBlurOuter1" type="matrix" values="0 0 0 0 0   0 0 0 0 0   0 0 0 0 0  0 0 0 0.5 0"/></filter><rect height="10" id="path-15" rx="5" width="160" x="20" y="50"/><filter filterUnits="objectBoundingBox" height="200%" id="filter-16" width="200%" x="-50%" y="-50%"><feOffset dx="0" dy="2" in="SourceAlpha" result="shadowOffsetOuter1"/><feGaussianBlur in="shadowOffsetOuter1" result="shadowBlurOuter1" stdDeviation="2"/><feColorMatrix in="shadowBlurOuter1" type="matrix" values="0 0 0 0 0   0 0 0 0 0   0 0 0 0 0  0 0 0 0.5 0"/></filter></defs><g fill="none" fill-rule="evenodd" id="Page-1" stroke="none" stroke-width="1"><g id="check"><path d="M200,400 C310.45695,400 400,310.45695 400,200 C400,89.54305 310.45695,0 200,0 C89.54305,0 0,89.54305 0,200 C0,310.45695 89.54305,400 200,400 Z" fill="#82A3A1" id="background"/><g id="Group-9" transform="translate(100.000000, 80.000000)"><g id="Combined-Shape"><use fill="black" fill-opacity="1" filter="url(#filter-2)" xlink:href="#path-1"/><use fill="#F2ECD2" fill-rule="evenodd" xlink:href="#path-1"/></g><rect fill="#F2ECD2" height="110" id="Rectangle-37" width="200" x="0" y="0"/><g id="Rectangle-39"><use fill="black" fill-opacity="1" filter="url(#filter-4)" xlink:href="#path-3"/><use fill="#413C58" fill-rule="evenodd" xlink:href="#path-3"/></g><g id="Rectangle-39-Copy"><use fill="black" fill-opacity="1" filter="url(#filter-6)" xlink:href="#path-5"/><use fill="#413C58" fill-rule="evenodd" xlink:href="#path-5"/></g><g id="Rectangle-39-Copy-2"><use fill="black" fill-opacity="1" filter="url(#filter-8)" xlink:href="#path-7"/><use fill="#413C58" fill-rule="evenodd" xlink:href="#path-7"/></g><g id="Rectangle-39-Copy-3"><use fill="black" fill-opacity="1" filter="url(#filter-10)" xlink:href="#path-9"/><use fill="#413C58" fill-rule="evenodd" xlink:href="#path-9"/></g><g id="Rectangle-39-Copy-4"><use fill="black" fill-opacity="1" filter="url(#filter-12)" xlink:href="#path-11"/><use fill="#413C58" fill-rule="evenodd" xlink:href="#path-11"/></g><g id="Rectangle-39-Copy-5"><use fill="black" fill-opacity="1" filter="url(#filter-14)" xlink:href="#path-13"/><use fill="#413C58" fill-rule="evenodd" xlink:href="#path-13"/></g><g id="Rectangle-39-Copy-6"><use fill="black" fill-opacity="1" filter="url(#filter-16)" xlink:href="#path-15"/><use fill="#413C58" fill-rule="evenodd" xlink:href="#path-15"/></g><ellipse cx="30" cy="32" fill="#F2ECD2" id="Oval-25" rx="5" ry="8" stroke="#535C76" stroke-width="2"/><ellipse cx="44" cy="32" fill="#F2ECD2" id="Oval-25-Copy" rx="5" ry="8" stroke="#535C76" stroke-width="2"/><ellipse cx="58" cy="32" fill="#F2ECD2" id="Oval-25-Copy-2" rx="5" ry="8" stroke="#535C76" stroke-width="2"/><ellipse cx="81" cy="32" fill="#F2ECD2" id="Oval-25" rx="5" ry="8" stroke="#535C76" stroke-width="2"/><ellipse cx="95" cy="32" fill="#F2ECD2" id="Oval-25-Copy" rx="5" ry="8" stroke="#535C76" stroke-width="2"/><ellipse cx="109" cy="32" fill="#F2ECD2" id="Oval-25-Copy-2" rx="5" ry="8" stroke="#535C76" stroke-width="2"/><ellipse cx="141" cy="32" fill="#F2ECD2" id="Oval-25" rx="5" ry="8" stroke="#535C76" stroke-width="2"/><ellipse cx="127" cy="32" fill="#F2ECD2" id="Oval-25-Copy-3" rx="5" ry="8" stroke="#535C76" stroke-width="2"/><ellipse cx="155" cy="32" fill="#F2ECD2" id="Oval-25-Copy" rx="5" ry="8" stroke="#535C76" stroke-width="2"/><ellipse cx="169" cy="32" fill="#F2ECD2" id="Oval-25-Copy-2" rx="5" ry="8" stroke="#535C76" stroke-width="2"/></g></g></g></svg>