<?xml version="1.0" encoding="iso-8859-1"?>
<!-- Generator: Adobe Illustrator 19.0.0, SVG Export Plug-In . SVG Version: 6.00 Build 0)  -->
<svg version="1.1" id="Capa_1" xmlns="http://www.w3.org/2000/svg" xmlns:xlink="http://www.w3.org/1999/xlink" x="0px" y="0px"
	 viewBox="0 0 512.001 512.001" style="enable-background:new 0 0 512.001 512.001;" xml:space="preserve">
<rect x="88.681" y="88.68" style="fill:#FFFFFF;" width="334.64" height="334.64"/>
<rect x="113.441" y="113.44" style="fill:#5DE0BF;" width="285.13" height="285.13"/>
<polygon style="fill:#76FFD9;" points="378.795,113.437 378.795,378.794 113.438,378.794 113.438,398.563 398.564,398.563 
	398.564,113.437 "/>
<path style="fill:#FFC843;" d="M315.87,328.633H196.132c-7.049,0-12.764-5.715-12.764-12.764V196.132
	c0-7.049,5.715-12.764,12.764-12.764H315.87c7.049,0,12.764,5.715,12.764,12.764V315.87
	C328.634,322.919,322.919,328.633,315.87,328.633z"/>
<rect x="204.681" y="204.68" style="fill:#FFA816;" width="102.63" height="102.63"/>
<path style="fill:#434C54;" d="M430.821,263.506h43.254c2.959,7.154,10.006,12.204,18.216,12.204
	c10.868,0,19.709-8.842,19.709-19.71c0-10.867-8.842-19.709-19.709-19.709c-8.215,0-15.264,5.055-18.22,12.215h-43.25v-65.601
	h43.254c2.959,7.154,10.006,12.204,18.216,12.204c10.868,0,19.709-8.842,19.709-19.71c0-10.867-8.842-19.709-19.709-19.709
	c-8.215,0-15.264,5.055-18.22,12.215h-43.25V88.68c0-4.143-3.358-7.5-7.5-7.5h-32.213c-4.142,0-7.5,3.357-7.5,7.5s3.358,7.5,7.5,7.5
	h24.713v79.216v0.01v0.01v80.581v0.01v0.01v80.58v0.01v0.01v79.205H96.181v-79.215v-0.01v-0.01v-80.581v-0.01v-0.01v-80.58v-0.01
	v-0.01V96.18h265.38c4.142,0,7.5-3.357,7.5-7.5s-3.358-7.5-7.5-7.5h-17.45V37.926c7.152-2.96,12.2-10.006,12.2-18.216
	c0-10.868-8.842-19.71-19.709-19.71s-19.709,8.842-19.709,19.71c0,8.216,5.057,15.267,12.219,18.222V81.18h-65.6V37.925
	c7.152-2.96,12.2-10.006,12.2-18.215C275.71,8.842,266.869,0,256.001,0s-19.709,8.842-19.709,19.71
	c0,8.217,5.057,15.267,12.219,18.223V81.18h-65.6V37.925c7.151-2.96,12.199-10.006,12.199-18.215C195.11,8.842,186.268,0,175.401,0
	s-19.71,8.842-19.71,19.71c0,8.217,5.058,15.268,12.22,18.223V81.18h-79.23c-4.142,0-7.5,3.357-7.5,7.5v79.216H37.927
	c-2.958-7.155-10.006-12.205-18.217-12.205c-10.867-0.001-19.709,8.841-19.709,19.708c0,10.868,8.842,19.71,19.709,19.71
	c8.214,0,15.263-5.055,18.22-12.214h43.25v65.6H37.927c-2.959-7.154-10.006-12.204-18.217-12.204
	c-10.867,0-19.709,8.842-19.709,19.709c0,10.868,8.842,19.71,19.709,19.71c8.214,0,15.264-5.055,18.22-12.215h43.25v65.601H37.927
	c-2.959-7.154-10.006-12.204-18.216-12.204c-10.868,0-19.71,8.841-19.71,19.71c0,10.867,8.842,19.709,19.709,19.709
	c8.215,0,15.264-5.055,18.22-12.215h43.25v79.225c0,4.143,3.358,7.5,7.5,7.5h79.21v43.255c-7.152,2.96-12.2,10.006-12.2,18.216
	c0,10.867,8.842,19.709,19.709,19.709s19.709-8.842,19.709-19.709c0-8.216-5.057-15.267-12.219-18.222v-43.25h65.6v43.255
	c-7.152,2.96-12.2,10.006-12.2,18.215c0,10.867,8.842,19.709,19.709,19.709s19.709-8.842,19.709-19.709
	c0-8.217-5.057-15.267-12.219-18.223V430.82h65.6v43.256c-7.151,2.96-12.199,10.006-12.199,18.215
	c0,10.867,8.842,19.709,19.709,19.709s19.709-8.842,19.709-19.709c0-8.217-5.058-15.268-12.22-18.223V430.82h79.23
	c4.142,0,7.5-3.357,7.5-7.5v-79.215h43.253c2.958,7.155,10.006,12.205,18.217,12.205c10.868,0,19.709-8.842,19.709-19.709
	c0-10.868-8.842-19.71-19.709-19.71c-8.214,0-15.263,5.055-18.22,12.214h-43.25v-65.599H430.821z M492.292,251.291
	c2.597,0,4.709,2.112,4.709,4.709c0,2.597-2.113,4.71-4.709,4.71s-4.709-2.113-4.709-4.71S489.695,251.291,492.292,251.291z
	 M492.292,170.69c2.597,0,4.709,2.112,4.709,4.709s-2.113,4.71-4.709,4.71s-4.709-2.113-4.709-4.71S489.695,170.69,492.292,170.69z
	 M336.602,15c2.597,0,4.709,2.113,4.709,4.71c0,2.584-2.094,4.687-4.674,4.707c-0.009,0-0.017-0.001-0.026-0.001
	c-0.013,0-0.025,0.002-0.038,0.002c-2.583-0.016-4.68-2.12-4.68-4.707C331.892,17.113,334.005,15,336.602,15z M256.001,15
	c2.597,0,4.709,2.113,4.709,4.71c0,2.584-2.094,4.687-4.674,4.706c-0.009,0-0.017-0.001-0.026-0.001
	c-0.013,0-0.026,0.002-0.039,0.002c-2.583-0.016-4.681-2.12-4.681-4.707C251.292,17.113,253.404,15,256.001,15z M175.4,15
	c2.597,0,4.709,2.113,4.709,4.71c0,2.584-2.094,4.687-4.674,4.706c-0.008,0-0.017-0.001-0.025-0.001
	c-0.013,0-0.026,0.002-0.039,0.002c-2.583-0.016-4.681-2.12-4.681-4.707C170.691,17.113,172.804,15,175.4,15z M19.71,180.109
	c-2.597,0-4.709-2.113-4.709-4.71s2.113-4.709,4.709-4.709s4.709,2.112,4.709,4.709S22.307,180.109,19.71,180.109z M19.71,260.71
	c-2.597,0-4.709-2.113-4.709-4.71s2.113-4.709,4.709-4.709s4.709,2.112,4.709,4.709S22.307,260.71,19.71,260.71z M19.71,341.311
	c-2.597,0-4.709-2.112-4.709-4.709s2.113-4.71,4.709-4.71s4.709,2.113,4.709,4.71S22.307,341.311,19.71,341.311z M175.4,497
	c-2.597,0-4.709-2.112-4.709-4.709c0-2.587,2.098-4.691,4.681-4.707c0.007,0,0.013,0.001,0.02,0.001
	c0.011,0,0.021-0.001,0.032-0.001c2.586,0.012,4.687,2.119,4.687,4.708C180.11,494.888,177.997,497,175.4,497z M256.001,497
	c-2.597,0-4.709-2.112-4.709-4.709c0-2.587,2.098-4.691,4.68-4.707c0.006,0,0.013,0.001,0.019,0.001
	c0.011,0,0.021-0.001,0.032-0.002c2.586,0.012,4.687,2.119,4.687,4.708C260.71,494.888,258.598,497,256.001,497z M336.602,497
	c-2.597,0-4.709-2.112-4.709-4.709c0-2.587,2.097-4.691,4.68-4.707c0.006,0,0.012,0.001,0.019,0.001
	c0.011,0,0.022-0.001,0.033-0.002c2.586,0.012,4.687,2.119,4.687,4.708C341.311,494.888,339.198,497,336.602,497z M492.292,331.892
	c2.597,0,4.709,2.113,4.709,4.71s-2.113,4.709-4.709,4.709s-4.709-2.112-4.709-4.709S489.695,331.892,492.292,331.892z"/>
<g>
	<path style="fill:#00A97D;" d="M151.117,170.69h12.074c4.142,0,7.5-3.357,7.5-7.5v-12.073c0-4.143-3.358-7.5-7.5-7.5h-12.074
		c-4.142,0-7.5,3.357-7.5,7.5v12.073C143.617,167.333,146.975,170.69,151.117,170.69z"/>
	<path style="fill:#00A97D;" d="M202.73,143.617h-12.073c-4.142,0-7.5,3.357-7.5,7.5v12.073c0,4.143,3.358,7.5,7.5,7.5h12.073
		c4.142,0,7.5-3.357,7.5-7.5v-12.073C210.23,146.975,206.872,143.617,202.73,143.617z"/>
	<path style="fill:#00A97D;" d="M242.268,170.69c4.142,0,7.5-3.357,7.5-7.5v-12.073c0-4.143-3.358-7.5-7.5-7.5h-12.073
		c-4.142,0-7.5,3.357-7.5,7.5v12.073c0,4.143,3.358,7.5,7.5,7.5H242.268z"/>
	<path style="fill:#00A97D;" d="M281.807,170.69c4.142,0,7.5-3.357,7.5-7.5v-12.073c0-4.143-3.358-7.5-7.5-7.5h-12.073
		c-4.142,0-7.5,3.357-7.5,7.5v12.073c0,4.143,3.358,7.5,7.5,7.5H281.807z"/>
	<path style="fill:#00A97D;" d="M328.846,151.117c0-4.143-3.358-7.5-7.5-7.5h-12.073c-4.142,0-7.5,3.357-7.5,7.5v12.073
		c0,4.143,3.358,7.5,7.5,7.5h12.073c4.142,0,7.5-3.357,7.5-7.5V151.117z"/>
	<path style="fill:#00A97D;" d="M348.811,170.69h12.074c4.142,0,7.5-3.357,7.5-7.5v-12.073c0-4.143-3.358-7.5-7.5-7.5h-12.074
		c-4.142,0-7.5,3.357-7.5,7.5v12.073C341.311,167.333,344.669,170.69,348.811,170.69z"/>
	<path style="fill:#00A97D;" d="M143.617,360.884c0,4.143,3.358,7.5,7.5,7.5h12.074c4.142,0,7.5-3.357,7.5-7.5v-12.073
		c0-4.143-3.358-7.5-7.5-7.5h-12.074c-4.142,0-7.5,3.357-7.5,7.5V360.884z"/>
	<path style="fill:#00A97D;" d="M183.156,360.884c0,4.143,3.358,7.5,7.5,7.5h12.073c4.142,0,7.5-3.357,7.5-7.5v-12.073
		c0-4.143-3.358-7.5-7.5-7.5h-12.073c-4.142,0-7.5,3.357-7.5,7.5V360.884z"/>
	<path style="fill:#00A97D;" d="M242.268,341.311h-12.073c-4.142,0-7.5,3.357-7.5,7.5v12.073c0,4.143,3.358,7.5,7.5,7.5h12.073
		c4.142,0,7.5-3.357,7.5-7.5v-12.073C249.768,344.668,246.41,341.311,242.268,341.311z"/>
	<path style="fill:#00A97D;" d="M269.734,341.311c-4.142,0-7.5,3.357-7.5,7.5v12.073c0,4.143,3.358,7.5,7.5,7.5h12.073
		c4.142,0,7.5-3.357,7.5-7.5v-12.073c0-4.143-3.358-7.5-7.5-7.5H269.734z"/>
	<path style="fill:#00A97D;" d="M321.346,341.311h-12.073c-4.142,0-7.5,3.357-7.5,7.5v12.073c0,4.143,3.358,7.5,7.5,7.5h12.073
		c4.142,0,7.5-3.357,7.5-7.5v-12.073C328.846,344.668,325.488,341.311,321.346,341.311z"/>
	<path style="fill:#00A97D;" d="M341.311,360.884c0,4.143,3.358,7.5,7.5,7.5h12.074c4.142,0,7.5-3.357,7.5-7.5v-12.073
		c0-4.143-3.358-7.5-7.5-7.5h-12.074c-4.142,0-7.5,3.357-7.5,7.5V360.884z"/>
	<path style="fill:#00A97D;" d="M143.617,202.729c0,4.143,3.358,7.5,7.5,7.5h12.074c4.142,0,7.5-3.357,7.5-7.5v-12.073
		c0-4.143-3.358-7.5-7.5-7.5h-12.074c-4.142,0-7.5,3.357-7.5,7.5V202.729z"/>
	<path style="fill:#00A97D;" d="M143.617,242.268c0,4.143,3.358,7.5,7.5,7.5h12.074c4.142,0,7.5-3.357,7.5-7.5v-12.073
		c0-4.143-3.358-7.5-7.5-7.5h-12.074c-4.142,0-7.5,3.357-7.5,7.5V242.268z"/>
	<path style="fill:#00A97D;" d="M143.617,281.807c0,4.143,3.358,7.5,7.5,7.5h12.074c4.142,0,7.5-3.357,7.5-7.5v-12.073
		c0-4.143-3.358-7.5-7.5-7.5h-12.074c-4.142,0-7.5,3.357-7.5,7.5V281.807z"/>
	<path style="fill:#00A97D;" d="M143.617,321.346c0,4.143,3.358,7.5,7.5,7.5h12.074c4.142,0,7.5-3.357,7.5-7.5v-12.074
		c0-4.143-3.358-7.5-7.5-7.5h-12.074c-4.142,0-7.5,3.357-7.5,7.5V321.346z"/>
	<path style="fill:#00A97D;" d="M341.311,202.729c0,4.143,3.358,7.5,7.5,7.5h12.074c4.142,0,7.5-3.357,7.5-7.5v-12.073
		c0-4.143-3.358-7.5-7.5-7.5h-12.074c-4.142,0-7.5,3.357-7.5,7.5V202.729z"/>
	<path style="fill:#00A97D;" d="M341.311,242.268c0,4.143,3.358,7.5,7.5,7.5h12.074c4.142,0,7.5-3.357,7.5-7.5v-12.073
		c0-4.143-3.358-7.5-7.5-7.5h-12.074c-4.142,0-7.5,3.357-7.5,7.5V242.268z"/>
	<path style="fill:#00A97D;" d="M341.311,281.807c0,4.143,3.358,7.5,7.5,7.5h12.074c4.142,0,7.5-3.357,7.5-7.5v-12.073
		c0-4.143-3.358-7.5-7.5-7.5h-12.074c-4.142,0-7.5,3.357-7.5,7.5V281.807z"/>
	<path style="fill:#00A97D;" d="M341.311,321.346c0,4.143,3.358,7.5,7.5,7.5h12.074c4.142,0,7.5-3.357,7.5-7.5v-12.074
		c0-4.143-3.358-7.5-7.5-7.5h-12.074c-4.142,0-7.5,3.357-7.5,7.5V321.346z"/>
</g>
<g>
</g>
<g>
</g>
<g>
</g>
<g>
</g>
<g>
</g>
<g>
</g>
<g>
</g>
<g>
</g>
<g>
</g>
<g>
</g>
<g>
</g>
<g>
</g>
<g>
</g>
<g>
</g>
<g>
</g>
</svg>
